<svg width="51" height="51" viewBox="0 0 51 51" fill="none" xmlns="http://www.w3.org/2000/svg">
<g clip-path="url(#clip0_2071_1166)">
<circle cx="25.7543" cy="25.5374" r="24.8828" fill="#252424"/>
<circle cx="25.7543" cy="25.5374" r="24.3172" stroke="white" stroke-opacity="0.42" stroke-width="1.13103" style="mix-blend-mode:overlay"/>
<path d="M36.3806 25.5069L39.7301 25.4693C39.8707 25.4677 39.9695 25.621 39.9113 25.7562C39.4724 26.7746 38.8676 27.7039 38.1243 28.5021L25.6971 41.8701C25.4627 42.1228 25.0718 42.1272 24.8318 41.8799L12.1071 28.7947C11.8534 28.5334 11.6142 28.257 11.3908 27.9667C11.3674 27.9369 11.3525 27.9009 11.3477 27.8626C11.3429 27.8244 11.3486 27.7855 11.3639 27.7505C11.3792 27.7155 11.4037 27.6857 11.4344 27.6648C11.4651 27.6438 11.5008 27.6324 11.5374 27.6319L17.4189 27.5658C17.73 27.5643 18.0344 27.4706 18.2972 27.2953C18.56 27.1201 18.7706 26.8704 18.9049 26.5748L19.6377 24.9845C19.6621 24.9316 19.6995 24.8866 19.7461 24.8542C19.7927 24.8218 19.8468 24.8032 19.9026 24.8003C19.9584 24.7975 20.0139 24.8105 20.0633 24.838C20.1127 24.8655 20.1543 24.9065 20.1835 24.9567L24.4659 32.3102C24.6117 32.5549 24.8682 32.7064 25.1404 32.7034C25.1508 32.7033 25.1613 32.6995 25.1717 32.6993C25.4543 32.6851 25.7105 32.5095 25.8331 32.2397L27.0255 29.6564C27.1277 29.4309 27.3425 29.2888 27.5833 29.2861L29.5792 29.2637C30.2666 29.2559 30.8724 28.8153 31.1196 28.1397L33.4034 21.9065C33.508 21.6215 33.8934 21.6289 33.9884 21.9179L34.7758 24.3154C34.8904 24.6666 35.1072 24.9708 35.3953 25.1848C35.6835 25.3987 36.0283 25.5115 36.3806 25.5069Z" fill="url(#paint0_linear_2071_1166)"/>
<path d="M41.0956 24.2073C41.0844 24.251 41.0599 24.2895 41.026 24.3172C40.992 24.3449 40.9504 24.3601 40.9075 24.3605L37.0262 24.4042C36.8942 24.4058 36.7651 24.3637 36.6571 24.2838C36.5491 24.2038 36.4676 24.0901 36.4244 23.9587L35.1199 19.988C35.0115 19.6583 34.7263 19.4372 34.3948 19.4336C34.2348 19.4285 34.0774 19.4762 33.9446 19.57C33.8117 19.6638 33.7101 19.7989 33.6538 19.9567L30.8028 27.7389C30.7579 27.8623 30.6788 27.9686 30.5757 28.0439C30.4726 28.1192 30.3503 28.1599 30.2248 28.1609L28.2288 28.1833C27.5903 28.1905 27.0187 28.5719 26.7393 29.1744L25.7616 31.2957L21.1852 23.4352C21.1121 23.3087 21.0079 23.2054 20.8836 23.1363C20.7593 23.0671 20.6196 23.0347 20.4793 23.0424C20.1933 23.0566 19.9406 23.2323 19.8145 23.5021L18.6221 26.0927C18.5165 26.3182 18.3052 26.4603 18.0644 26.463L11.2573 26.5395C11.2212 26.5399 11.1857 26.5299 11.1547 26.5106C11.1236 26.4913 11.0981 26.4635 11.0808 26.4301C9.23648 22.8026 9.73707 18.1902 12.611 15.0902C16.0971 11.3377 21.7736 11.204 25.4184 14.7403C25.5313 14.8493 25.7058 14.8474 25.8162 14.7358C29.3805 11.1184 35.0586 11.1245 38.6282 14.7977C41.0828 17.326 41.9083 20.9459 41.0956 24.2073Z" fill="url(#paint1_linear_2071_1166)"/>
</g>
<defs>
<linearGradient id="paint0_linear_2071_1166" x1="25.5813" y1="21.7881" x2="25.8092" y2="42.0564" gradientUnits="userSpaceOnUse">
<stop offset="0.371754" stop-color="#FDD9FF"/>
<stop offset="0.734291" stop-color="#C1E7FF"/>
<stop offset="1" stop-color="#C1E7FF" stop-opacity="0"/>
</linearGradient>
<linearGradient id="paint1_linear_2071_1166" x1="14.7788" y1="14.9942" x2="33.4185" y2="33.6339" gradientUnits="userSpaceOnUse">
<stop offset="0.3125" stop-color="#DDD3EF"/>
<stop offset="0.666667" stop-color="#FDD9FF"/>
</linearGradient>
<clipPath id="clip0_2071_1166">
<rect width="49.7655" height="49.7655" fill="white" transform="translate(0.871582 0.654602)"/>
</clipPath>
</defs>
</svg>
